<svg xmlns="http://www.w3.org/2000/svg" width="327" height="37">
         <defs>
            <style type="text/css">
    @namespace "http://www.w3.org/2000/svg";
    .line                 {fill: none; stroke: #332900; stroke-width: 1;}
    .bold-line            {stroke: #141000; shape-rendering: crispEdges; stroke-width: 2;}
    .thin-line            {stroke: #1F1800; shape-rendering: crispEdges}
    .filled               {fill: #332900; stroke: none;}
    text.terminal         {font-family: Verdana, Sans-serif;
                            font-size: 12px;
                            fill: #141000;
                            font-weight: bold;
                          }
    text.nonterminal      {font-family: Verdana, Sans-serif;
                            font-size: 12px;
                            fill: #1A1400;
                            font-weight: normal;
                          }
    text.regexp           {font-family: Verdana, Sans-serif;
                            font-size: 12px;
                            fill: #1F1800;
                            font-weight: normal;
                          }
    rect, circle, polygon {fill: #332900; stroke: #332900;}
    rect.terminal         {fill: #FFDB4D; stroke: #332900; stroke-width: 1;}
    rect.nonterminal      {fill: #FFEC9E; stroke: #332900; stroke-width: 1;}
    rect.text             {fill: none; stroke: none;}
    polygon.regexp        {fill: #FFF4C7; stroke: #332900; stroke-width: 1;}
  </style>
         </defs>
         <polygon points="9 17 1 13 1 21"/>
         <polygon points="17 17 9 13 9 21"/><a xmlns:xlink="http://www.w3.org/1999/xlink" xlink:href="#Expression" xlink:title="Expression">
            <rect x="31" y="3" width="90" height="32"/>
            <rect x="29" y="1" width="90" height="32" class="nonterminal"/>
            <text class="nonterminal" x="39" y="21">Expression</text></a><a xmlns:xlink="http://www.w3.org/1999/xlink" xlink:href="#OPERATOR" xlink:title="OPERATOR">
            <rect x="141" y="3" width="86" height="32"/>
            <rect x="139" y="1" width="86" height="32" class="nonterminal"/>
            <text class="nonterminal" x="149" y="21">OPERATOR</text></a><a xmlns:xlink="http://www.w3.org/1999/xlink" xlink:href="#Term" xlink:title="Term">
            <rect x="247" y="3" width="52" height="32"/>
            <rect x="245" y="1" width="52" height="32" class="nonterminal"/>
            <text class="nonterminal" x="255" y="21">Term</text></a><svg:path xmlns:svg="http://www.w3.org/2000/svg" class="line" d="m17 17 h2 m0 0 h10 m90 0 h10 m0 0 h10 m86 0 h10 m0 0 h10 m52 0 h10 m3 0 h-3"/>
         <polygon points="317 17 325 13 325 21"/>
         <polygon points="317 17 309 13 309 21"/></svg>