<svg xmlns="http://www.w3.org/2000/svg" width="321" height="113">
         <defs>
            <style type="text/css">
    @namespace "http://www.w3.org/2000/svg";
    .line                 {fill: none; stroke: #332900; stroke-width: 1;}
    .bold-line            {stroke: #141000; shape-rendering: crispEdges; stroke-width: 2;}
    .thin-line            {stroke: #1F1800; shape-rendering: crispEdges}
    .filled               {fill: #332900; stroke: none;}
    text.terminal         {font-family: Verdana, Sans-serif;
                            font-size: 12px;
                            fill: #141000;
                            font-weight: bold;
                          }
    text.nonterminal      {font-family: Verdana, Sans-serif;
                            font-size: 12px;
                            fill: #1A1400;
                            font-weight: normal;
                          }
    text.regexp           {font-family: Verdana, Sans-serif;
                            font-size: 12px;
                            fill: #1F1800;
                            font-weight: normal;
                          }
    rect, circle, polygon {fill: #332900; stroke: #332900;}
    rect.terminal         {fill: #FFDB4D; stroke: #332900; stroke-width: 1;}
    rect.nonterminal      {fill: #FFEC9E; stroke: #332900; stroke-width: 1;}
    rect.text             {fill: none; stroke: none;}
    polygon.regexp        {fill: #FFF4C7; stroke: #332900; stroke-width: 1;}
  </style>
         </defs>
         <polygon points="9 33 1 29 1 37"/>
         <polygon points="17 33 9 29 9 37"/>
         <rect x="31" y="19" width="24" height="32" rx="10"/>
         <rect x="29" y="17" width="24" height="32" class="terminal" rx="10"/>
         <text class="terminal" x="39" y="37">'</text>
         <polygon points="135 35 142 19 182 19 189 35 182 51 142 51"/>
         <polygon points="133 33 140 17 180 17 187 33 180 49 140 49" class="regexp"/>
         <text class="regexp" x="148" y="37">[^']</text>
         <rect x="135" y="63" width="32" height="32" rx="10"/>
         <rect x="133" y="61" width="32" height="32" class="terminal" rx="10"/>
         <text class="terminal" x="143" y="81">\'</text>
         <rect x="269" y="19" width="24" height="32" rx="10"/>
         <rect x="267" y="17" width="24" height="32" class="terminal" rx="10"/>
         <text class="terminal" x="277" y="37">'</text>
         <svg:path xmlns:svg="http://www.w3.org/2000/svg" class="line" d="m17 33 h2 m0 0 h10 m24 0 h10 m60 0 h10 m54 0 h10 m-94 0 h20 m74 0 h20 m-114 0 q10 0 10 10 m94 0 q0 -10 10 -10 m-104 10 v24 m94 0 v-24 m-94 24 q0 10 10 10 m74 0 q10 0 10 -10 m-84 10 h10 m32 0 h10 m0 0 h22 m-114 -44 l20 0 m-1 0 q-9 0 -9 -10 l0 -12 q0 -10 10 -10 m114 32 l20 0 m-20 0 q10 0 10 -10 l0 -12 q0 -10 -10 -10 m-114 0 h10 m0 0 h104 m-154 32 h20 m154 0 h20 m-194 0 q10 0 10 10 m174 0 q0 -10 10 -10 m-184 10 v58 m174 0 v-58 m-174 58 q0 10 10 10 m154 0 q10 0 10 -10 m-164 10 h10 m0 0 h144 m20 -78 h10 m24 0 h10 m3 0 h-3"/>
         <polygon points="311 33 319 29 319 37"/>
         <polygon points="311 33 303 29 303 37"/></svg>