<svg xmlns="http://www.w3.org/2000/svg" width="133" height="57">
         <defs>
            <style type="text/css">
    @namespace "http://www.w3.org/2000/svg";
    .line                 {fill: none; stroke: #332900; stroke-width: 1;}
    .bold-line            {stroke: #141000; shape-rendering: crispEdges; stroke-width: 2;}
    .thin-line            {stroke: #1F1800; shape-rendering: crispEdges}
    .filled               {fill: #332900; stroke: none;}
    text.terminal         {font-family: Verdana, Sans-serif;
                            font-size: 12px;
                            fill: #141000;
                            font-weight: bold;
                          }
    text.nonterminal      {font-family: Verdana, Sans-serif;
                            font-size: 12px;
                            fill: #1A1400;
                            font-weight: normal;
                          }
    text.regexp           {font-family: Verdana, Sans-serif;
                            font-size: 12px;
                            fill: #1F1800;
                            font-weight: normal;
                          }
    rect, circle, polygon {fill: #332900; stroke: #332900;}
    rect.terminal         {fill: #FFDB4D; stroke: #332900; stroke-width: 1;}
    rect.nonterminal      {fill: #FFEC9E; stroke: #332900; stroke-width: 1;}
    rect.text             {fill: none; stroke: none;}
    polygon.regexp        {fill: #FFF4C7; stroke: #332900; stroke-width: 1;}
  </style>
         </defs>
         <polygon points="9 51 1 47 1 55"/>
         <polygon points="17 51 9 47 9 55"/>
         <polygon points="51 19 58 3 78 3 85 19 78 35 58 35"/>
         <polygon points="49 17 56 1 76 1 83 17 76 33 56 33" class="regexp"/>
         <text class="regexp" x="64" y="21">.</text>
         <svg:path xmlns:svg="http://www.w3.org/2000/svg" class="line" d="m17 51 h2 m20 0 h10 m0 0 h44 m-74 0 l20 0 m-1 0 q-9 0 -9 -10 l0 -14 q0 -10 10 -10 m54 34 l20 0 m-20 0 q10 0 10 -10 l0 -14 q0 -10 -10 -10 m-54 0 h10 m34 0 h10 m23 34 h-3"/>
         <polygon points="123 51 131 47 131 55"/>
         <polygon points="123 51 115 47 115 55"/></svg>