<svg xmlns="http://www.w3.org/2000/svg" width="353" height="101">
         <defs>
            <style type="text/css">
    @namespace "http://www.w3.org/2000/svg";
    .line                 {fill: none; stroke: #332900; stroke-width: 1;}
    .bold-line            {stroke: #141000; shape-rendering: crispEdges; stroke-width: 2;}
    .thin-line            {stroke: #1F1800; shape-rendering: crispEdges}
    .filled               {fill: #332900; stroke: none;}
    text.terminal         {font-family: Verdana, Sans-serif;
                            font-size: 12px;
                            fill: #141000;
                            font-weight: bold;
                          }
    text.nonterminal      {font-family: Verdana, Sans-serif;
                            font-size: 12px;
                            fill: #1A1400;
                            font-weight: normal;
                          }
    text.regexp           {font-family: Verdana, Sans-serif;
                            font-size: 12px;
                            fill: #1F1800;
                            font-weight: normal;
                          }
    rect, circle, polygon {fill: #332900; stroke: #332900;}
    rect.terminal         {fill: #FFDB4D; stroke: #332900; stroke-width: 1;}
    rect.nonterminal      {fill: #FFEC9E; stroke: #332900; stroke-width: 1;}
    rect.text             {fill: none; stroke: none;}
    polygon.regexp        {fill: #FFF4C7; stroke: #332900; stroke-width: 1;}
  </style>
         </defs>
         <polygon points="9 49 1 45 1 53"/>
         <polygon points="17 49 9 45 9 53"/><a xmlns:xlink="http://www.w3.org/1999/xlink" xlink:href="#Newline" xlink:title="Newline">
            <rect x="71" y="67" width="68" height="32"/>
            <rect x="69" y="65" width="68" height="32" class="nonterminal"/>
            <text class="nonterminal" x="79" y="85">Newline</text></a><a xmlns:xlink="http://www.w3.org/1999/xlink" xlink:href="#Statement" xlink:title="Statement">
            <rect x="199" y="35" width="86" height="32"/>
            <rect x="197" y="33" width="86" height="32" class="nonterminal"/>
            <text class="nonterminal" x="207" y="53">Statement</text></a><svg:path xmlns:svg="http://www.w3.org/2000/svg" class="line" d="m17 49 h2 m40 0 h10 m0 0 h78 m-108 0 h20 m88 0 h20 m-128 0 q10 0 10 10 m108 0 q0 -10 10 -10 m-118 10 v12 m108 0 v-12 m-108 12 q0 10 10 10 m88 0 q10 0 10 -10 m-98 10 h10 m68 0 h10 m40 -32 h10 m86 0 h10 m-126 0 l20 0 m-1 0 q-9 0 -9 -10 l0 -12 q0 -10 10 -10 m106 32 l20 0 m-20 0 q10 0 10 -10 l0 -12 q0 -10 -10 -10 m-106 0 h10 m0 0 h96 m-274 32 l20 0 m-1 0 q-9 0 -9 -10 l0 -28 q0 -10 10 -10 m274 48 l20 0 m-20 0 q10 0 10 -10 l0 -28 q0 -10 -10 -10 m-274 0 h10 m0 0 h264 m23 48 h-3"/>
         <polygon points="343 49 351 45 351 53"/>
         <polygon points="343 49 335 45 335 53"/></svg>